<svg height="512pt" viewBox="0 0 512 512" width="512pt" xmlns="http://www.w3.org/2000/svg"><path d="m463.800781 111.398438c0-29.761719-11.589843-57.734376-32.628906-78.765626-21.035156-21.042968-49.011719-32.632812-78.773437-32.632812h-192.796876c-29.765624 0-57.738281 11.589844-78.769531 32.628906-21.042969 21.03125-32.632812 49.007813-32.632812 78.769532 0 61.425781 49.976562 111.402343 111.402343 111.402343 24.726563 0 47.972657-9.628906 65.457032-27.113281l5.019531-5.019531h51.84375l5.019531 5.019531c17.484375 17.484375 40.730469 27.113281 65.457032 27.113281 61.425781 0 111.402343-49.976562 111.402343-111.402343zm-272.066406 15h-17.132813v17.132812c0 8.285156-6.71875 15-15 15-8.285156 0-15-6.714844-15-15v-17.132812h-17.132812c-8.285156 0-15-6.714844-15-15 0-8.28125 6.714844-15 15-15h17.132812v-17.132813c0-8.28125 6.714844-15 15-15 8.28125 0 15 6.71875 15 15v17.132813h17.132813c8.28125 0 15 6.71875 15 15 0 8.285156-6.714844 15-15 15zm192.796875-30c8.28125 0 15 6.722656 15 15 0 8.28125-6.71875 15-15 15-8.277344 0-15-6.71875-15-15 0-8.277344 6.722656-15 15-15zm-32.132812-32.132813c8.28125 0 15 6.722656 15 15 0 8.28125-6.71875 15-15 15-8.277344 0-15-6.71875-15-15 0-8.277344 6.722656-15 15-15zm-32.132813 62.132813c-8.277344 0-15-6.71875-15-15 0-8.277344 6.722656-15 15-15 8.28125 0 15 6.722656 15 15 0 8.28125-6.71875 15-15 15zm17.132813 17.132812c0-8.277344 6.722656-15 15-15 8.28125 0 15 6.722656 15 15 0 8.28125-6.71875 15-15 15-8.277344 0-15-6.71875-15-15zm0 0"/><path d="m175.667969 321.332031c0-35.4375-28.832031-64.265625-64.269531-64.265625-35.433594 0-64.265626 28.832032-64.265626 64.265625 0 35.4375 28.832032 64.269531 64.265626 64.269531 35.4375 0 64.269531-28.832031 64.269531-64.269531zm0 0"/><path d="m400.601562 385.601562c-61.527343 0-111.402343 49.875-111.402343 111.398438 0 8.285156 6.714843 15 15 15h192.800781c8.285156 0 15-6.714844 15-15 0-61.523438-49.875-111.398438-111.398438-111.398438zm0 0"/><path d="m400.601562 257.066406c-35.4375 0-64.265624 28.832032-64.265624 64.265625 0 35.4375 28.828124 64.269531 64.265624 64.269531s64.265626-28.832031 64.265626-64.269531c0-35.433593-28.828126-64.265625-64.265626-64.265625zm0 0"/><path d="m111.398438 385.601562c-61.523438 0-111.398438 49.875-111.398438 111.398438 0 8.285156 6.714844 15 15 15h192.800781c8.285157 0 15-6.714844 15-15 0-61.523438-49.875-111.398438-111.402343-111.398438zm0 0"/></svg>