<?xml version="1.0" encoding="iso-8859-1"?>
<!-- Generator: Adobe Illustrator 16.0.0, SVG Export Plug-In . SVG Version: 6.00 Build 0)  -->
<!DOCTYPE svg PUBLIC "-//W3C//DTD SVG 1.1//EN" "http://www.w3.org/Graphics/SVG/1.1/DTD/svg11.dtd">
<svg version="1.1" id="Capa_1" xmlns="http://www.w3.org/2000/svg" xmlns:xlink="http://www.w3.org/1999/xlink" x="0px" y="0px"
	 width="29.928px" height="29.928px" viewBox="0 0 29.928 29.928" style="enable-background:new 0 0 29.928 29.928;"
	 xml:space="preserve">
<g>
	<g>
		<path d="M26.246,19.088h-2.591c0.163-0.667,0.176-1.41-0.058-2.217c-0.51-2.418-2.146-4.159-2.146-4.159l-3.473-0.646
			c0,0-0.648,1.993-2.432,2.097c-1.786,0.103-2.46-2.097-2.46-2.097l-3.88,0.646c0,0-1.132,1.175-1.75,3.028
			c-0.414,1.062-0.158,2.205,0.467,3.348H3.68l-2.565,10.84h27.697L26.246,19.088z M10.053,17.484h11.4l-0.996,5.744h-9.264
			L10.053,17.484z M20.961,15.615c0.245,0.335,0.475,0.756,0.654,1.22c0,0.002,0.001,0.004,0.001,0.006h-0.808l0.033-0.366
			L20.961,15.615z M10.288,15.393l-0.149,1.448H9.354c0.005-0.095,0.02-0.179,0.059-0.243C9.661,16.188,10.077,15.654,10.288,15.393
			z M4.701,20.377h4.07c0.328,0.43,0.698,0.854,1.085,1.27l0.431,0.328l0.377,1.898h10.338l0.299-1.725
			c0.617-0.359,1.312-0.963,1.812-1.771h2.114l1.955,8.262H2.746L4.701,20.377z"/>
		<path d="M11.109,5.241c-0.058,0.195-0.119,0.388-0.154,0.591c-0.04,0.255-0.064,0.518-0.064,0.783c0,2.619,2.122,4.738,4.74,4.738
			c2.617,0,4.739-2.119,4.739-4.738c0-0.523-0.104-1.019-0.262-1.49l0.963-1.327L19.346,3.19l0.338-1.764l-2.105,0.603L16.609,0
			l-1.798,1.875l-1.394-1.614l-0.655,2.133L10.526,1.66l0.843,1.885L9.741,4.002L11.109,5.241z"/>
		<circle cx="15.748" cy="20.358" r="0.665"/>
	</g>
</g>
<g>
</g>
<g>
</g>
<g>
</g>
<g>
</g>
<g>
</g>
<g>
</g>
<g>
</g>
<g>
</g>
<g>
</g>
<g>
</g>
<g>
</g>
<g>
</g>
<g>
</g>
<g>
</g>
<g>
</g>
</svg>
